<svg width="1725" height="725" viewBox="0 0 1725 725" fill="none" xmlns="http://www.w3.org/2000/svg">
<g filter="url(#filter0_ii_173_861)">
<path d="M1574 226H1638.19C1658.4 228.87 1676.65 237.779 1691.08 250.841H1574V251.841H1692.17C1699.87 259.019 1706.44 267.399 1711.57 276.681H1574V277.681H1712.12C1716.27 285.408 1719.45 293.744 1721.46 302.521H1574V303.521H1721.69C1723.2 310.44 1724 317.627 1724 325V328.362H1574V329.362H1724V354.203H1574V355.203H1724V380.044H1574V381.044H1724V405.884H1574V406.884H1724V425C1724 427.26 1723.92 429.502 1723.78 431.725H1574V432.725H1723.71C1723.05 441.358 1721.29 449.684 1718.58 457.565H1574V458.565H1718.23C1715.04 467.5 1710.62 475.849 1705.18 483.406H1574V484.406H1704.45C1697.19 494.213 1688.19 502.647 1677.9 509.246H1574V510.246H1676.3C1661.09 519.602 1643.17 525 1624 525H1574L1574 225V226Z" fill="#4C2A22"/>
</g>
<path d="M1574 226H1573V227H1574V226ZM1638.19 226L1638.33 225.01L1638.26 225H1638.19V226ZM1691.08 250.841V251.841H1693.68L1691.76 250.099L1691.08 250.841ZM1574 250.841V249.841H1573V250.841H1574ZM1574 251.841H1573V252.841H1574V251.841ZM1692.17 251.841L1692.86 251.109L1692.57 250.841H1692.17V251.841ZM1711.57 276.681V277.681H1713.27L1712.45 276.197L1711.57 276.681ZM1574 276.681V275.681H1573V276.681H1574ZM1574 277.681H1573V278.681H1574V277.681ZM1712.12 277.681L1713 277.207L1712.71 276.681H1712.12V277.681ZM1721.46 302.521V303.521H1722.72L1722.44 302.298L1721.46 302.521ZM1574 302.521V301.521H1573V302.521H1574ZM1574 303.521H1573V304.521H1574V303.521ZM1721.69 303.521L1722.66 303.308L1722.49 302.521H1721.69V303.521ZM1724 325H1725V325H1724ZM1724 328.362V329.362H1725V328.362H1724ZM1574 328.362V327.362H1573V328.362H1574ZM1574 329.362H1573V330.362H1574V329.362ZM1724 329.362H1725V328.362H1724V329.362ZM1724 354.203V355.203H1725V354.203H1724ZM1574 354.203V353.203H1573V354.203H1574ZM1574 355.203H1573V356.203H1574V355.203ZM1724 355.203H1725V354.203H1724V355.203ZM1724 380.044V381.044H1725V380.044H1724ZM1574 380.044V379.044H1573V380.044H1574ZM1574 381.044H1573V382.044H1574V381.044ZM1724 381.044H1725V380.044H1724V381.044ZM1724 405.884V406.884H1725V405.884H1724ZM1574 405.884V404.884H1573V405.884H1574ZM1574 406.884H1573V407.884H1574V406.884ZM1724 406.884H1725V405.884H1724V406.884ZM1723.78 431.725V432.725H1724.71L1724.77 431.791L1723.78 431.725ZM1574 431.725V430.725H1573V431.725H1574ZM1574 432.725H1573V433.725H1574V432.725ZM1723.71 432.725L1724.7 432.801L1724.78 431.725H1723.71V432.725ZM1718.58 457.565V458.565H1719.29L1719.52 457.891L1718.58 457.565ZM1574 457.565V456.565H1573V457.565H1574ZM1574 458.565H1573V459.565H1574V458.565ZM1718.23 458.565L1719.17 458.901L1719.64 457.565H1718.23V458.565ZM1705.18 483.406V484.406H1705.69L1705.99 483.991L1705.18 483.406ZM1574 483.406V482.406H1573V483.406H1574ZM1574 484.406H1573V485.406H1574V484.406ZM1704.45 484.406L1705.25 485.001L1706.43 483.406H1704.45V484.406ZM1677.9 509.246V510.246H1678.19L1678.44 510.088L1677.9 509.246ZM1574 509.246V508.246H1573V509.246H1574ZM1574 510.246H1573V511.246H1574V510.246ZM1676.3 510.246L1676.83 511.098L1679.84 509.246H1676.3V510.246ZM1624 525V526V526V525ZM1574 525H1573L1573 526H1574V525ZM1574 226V227H1638.19V226V225H1574V226ZM1638.19 226L1638.05 226.99C1658.05 229.831 1676.13 238.65 1690.41 251.582L1691.08 250.841L1691.76 250.099C1677.18 236.908 1658.74 227.909 1638.33 225.01L1638.19 226ZM1691.08 250.841V249.841H1574V250.841V251.841H1691.08V250.841ZM1574 250.841H1573V251.841H1574H1575V250.841H1574ZM1574 251.841V252.841H1692.17V251.841V250.841H1574V251.841ZM1692.17 251.841L1691.49 252.572C1699.12 259.679 1705.61 267.976 1710.7 277.165L1711.57 276.681L1712.45 276.197C1707.26 266.822 1700.63 258.359 1692.86 251.109L1692.17 251.841ZM1711.57 276.681V275.681H1574V276.681V277.681H1711.57V276.681ZM1574 276.681H1573V277.681H1574H1575V276.681H1574ZM1574 277.681V278.681H1712.12V277.681V276.681H1574V277.681ZM1712.12 277.681L1711.24 278.155C1715.35 285.804 1718.49 294.056 1720.49 302.745L1721.46 302.521L1722.44 302.298C1720.4 293.431 1717.2 285.011 1713 277.207L1712.12 277.681ZM1721.46 302.521V301.521H1574V302.521V303.521H1721.46V302.521ZM1574 302.521H1573V303.521H1574H1575V302.521H1574ZM1574 303.521V304.521H1721.69V303.521V302.521H1574V303.521ZM1721.69 303.521L1720.71 303.735C1722.21 310.584 1723 317.699 1723 325H1724H1725C1725 317.554 1724.19 310.296 1722.66 303.308L1721.69 303.521ZM1724 325H1723V328.362H1724H1725V325H1724ZM1724 328.362V327.362H1574V328.362V329.362H1724V328.362ZM1574 328.362H1573V329.362H1574H1575V328.362H1574ZM1574 329.362V330.362H1724V329.362V328.362H1574V329.362ZM1724 329.362H1723V354.203H1724H1725V329.362H1724ZM1724 354.203V353.203H1574V354.203V355.203H1724V354.203ZM1574 354.203H1573V355.203H1574H1575V354.203H1574ZM1574 355.203V356.203H1724V355.203V354.203H1574V355.203ZM1724 355.203H1723V380.044H1724H1725V355.203H1724ZM1724 380.044V379.044H1574V380.044V381.044H1724V380.044ZM1574 380.044H1573V381.044H1574H1575V380.044H1574ZM1574 381.044V382.044H1724V381.044V380.044H1574V381.044ZM1724 381.044H1723V405.884H1724H1725V381.044H1724ZM1724 405.884V404.884H1574V405.884V406.884H1724V405.884ZM1574 405.884H1573V406.884H1574H1575V405.884H1574ZM1574 406.884V407.884H1724V406.884V405.884H1574V406.884ZM1724 406.884H1723V425H1724H1725V406.884H1724ZM1724 425H1723C1723 427.237 1722.92 429.457 1722.78 431.658L1723.78 431.725L1724.77 431.791C1724.92 429.547 1725 427.283 1725 425H1724ZM1723.78 431.725V430.725H1574V431.725V432.725H1723.78V431.725ZM1574 431.725H1573V432.725H1574H1575V431.725H1574ZM1574 432.725V433.725H1723.71V432.725V431.725H1574V432.725ZM1723.71 432.725L1722.71 432.648C1722.06 441.196 1720.32 449.438 1717.63 457.24L1718.58 457.565L1719.52 457.891C1722.26 449.93 1724.04 441.52 1724.7 432.801L1723.71 432.725ZM1718.58 457.565V456.565H1574V457.565V458.565H1718.58V457.565ZM1574 457.565H1573V458.565H1574H1575V457.565H1574ZM1574 458.565V459.565H1718.23V458.565V457.565H1574V458.565ZM1718.23 458.565L1717.28 458.23C1714.13 467.075 1709.76 475.339 1704.37 482.822L1705.18 483.406L1705.99 483.991C1711.49 476.358 1715.95 467.926 1719.17 458.901L1718.23 458.565ZM1705.18 483.406V482.406H1574V483.406V484.406H1705.18V483.406ZM1574 483.406H1573V484.406H1574H1575V483.406H1574ZM1574 484.406V485.406H1704.45V484.406V483.406H1574V484.406ZM1704.45 484.406L1703.64 483.812C1696.46 493.521 1687.55 501.871 1677.36 508.404L1677.9 509.246L1678.44 510.088C1688.83 503.423 1697.93 494.905 1705.25 485.001L1704.45 484.406ZM1677.9 509.246V508.246H1574V509.246V510.246H1677.9V509.246ZM1574 509.246H1573V510.246H1574H1575V509.246H1574ZM1574 510.246V511.246H1676.3V510.246V509.246H1574V510.246ZM1676.3 510.246L1675.78 509.394C1660.71 518.657 1642.98 524 1624 524V525V526C1643.36 526 1661.46 520.548 1676.83 511.098L1676.3 510.246ZM1624 525V524H1574V525V526H1624V525ZM1574 525H1575L1575 225L1574 225L1573 225L1573 525H1574ZM1574 225H1573V226H1574H1575V225H1574Z" fill="#150602"/>
<g filter="url(#filter1_ii_173_861)">
<rect y="25" width="1575" height="700" rx="100" fill="#4D2C23"/>
</g>
<rect x="2.5" y="27.5" width="1570" height="695" rx="97.5" stroke="#160A07" stroke-width="5"/>
<rect x="82.5" y="195" width="410" height="360" rx="55" fill="#0F0D0D" stroke="#7E493B" stroke-width="10"/>
<rect x="582.5" y="195" width="410" height="360" rx="55" fill="#0F0D0D" stroke="#7E493B" stroke-width="10"/>
<rect x="1082.5" y="195" width="410" height="360" rx="55" fill="#0F0D0D" stroke="#7E493B" stroke-width="10"/>
<rect x="512.5" y="294.865" width="50" height="50" rx="25" fill="#CD9282"/>
<rect x="1012.5" y="294.734" width="50" height="50" rx="25" fill="#CD9282"/>
<rect x="512.5" y="405.266" width="50" height="50" rx="25" fill="#CD9282"/>
<rect x="1012.5" y="405.266" width="50" height="50" rx="25" fill="#CD9282"/>
<path d="M1142.88 2.5C1150.33 2.5 1156.38 8.54416 1156.38 16V27.5H901.376V16C901.376 8.54416 907.42 2.5 914.876 2.5H1142.88Z" fill="#6E4135" stroke="#160A07" stroke-width="5"/>
<path d="M1411.5 2.5C1418.96 2.5 1425 8.54416 1425 16V27.5H1170V16C1170 8.54416 1176.04 2.5 1183.5 2.5H1411.5Z" fill="#6E4135" stroke="#160A07" stroke-width="5"/>
<path d="M643.971 2.5C651.427 2.5 657.471 8.54416 657.471 16V27.5H152.471V16C152.471 8.54416 158.515 2.5 165.971 2.5H643.971Z" fill="#6E4135" stroke="#160A07" stroke-width="5"/>
<defs>
<filter id="filter0_ii_173_861" x="1573" y="208" width="152" height="343" filterUnits="userSpaceOnUse" color-interpolation-filters="sRGB">
<feFlood flood-opacity="0" result="BackgroundImageFix"/>
<feBlend mode="normal" in="SourceGraphic" in2="BackgroundImageFix" result="shape"/>
<feColorMatrix in="SourceAlpha" type="matrix" values="0 0 0 0 0 0 0 0 0 0 0 0 0 0 0 0 0 0 127 0" result="hardAlpha"/>
<feOffset dy="27"/>
<feGaussianBlur stdDeviation="12.5"/>
<feComposite in2="hardAlpha" operator="arithmetic" k2="-1" k3="1"/>
<feColorMatrix type="matrix" values="0 0 0 0 0.545098 0 0 0 0 0.317647 0 0 0 0 0.258824 0 0 0 1 0"/>
<feBlend mode="normal" in2="shape" result="effect1_innerShadow_173_861"/>
<feColorMatrix in="SourceAlpha" type="matrix" values="0 0 0 0 0 0 0 0 0 0 0 0 0 0 0 0 0 0 127 0" result="hardAlpha"/>
<feOffset dy="-17"/>
<feGaussianBlur stdDeviation="15"/>
<feComposite in2="hardAlpha" operator="arithmetic" k2="-1" k3="1"/>
<feColorMatrix type="matrix" values="0 0 0 0 0.0684721 0 0 0 0 0.0263722 0 0 0 0 0.0147275 0 0 0 1 0"/>
<feBlend mode="normal" in2="effect1_innerShadow_173_861" result="effect2_innerShadow_173_861"/>
</filter>
<filter id="filter1_ii_173_861" x="0" y="3" width="1575" height="742" filterUnits="userSpaceOnUse" color-interpolation-filters="sRGB">
<feFlood flood-opacity="0" result="BackgroundImageFix"/>
<feBlend mode="normal" in="SourceGraphic" in2="BackgroundImageFix" result="shape"/>
<feColorMatrix in="SourceAlpha" type="matrix" values="0 0 0 0 0 0 0 0 0 0 0 0 0 0 0 0 0 0 127 0" result="hardAlpha"/>
<feMorphology radius="1" operator="erode" in="SourceAlpha" result="effect1_innerShadow_173_861"/>
<feOffset dy="20"/>
<feGaussianBlur stdDeviation="12.5"/>
<feComposite in2="hardAlpha" operator="arithmetic" k2="-1" k3="1"/>
<feColorMatrix type="matrix" values="0 0 0 0 0.431373 0 0 0 0 0.254902 0 0 0 0 0.207843 0 0 0 1 0"/>
<feBlend mode="normal" in2="shape" result="effect1_innerShadow_173_861"/>
<feColorMatrix in="SourceAlpha" type="matrix" values="0 0 0 0 0 0 0 0 0 0 0 0 0 0 0 0 0 0 127 0" result="hardAlpha"/>
<feMorphology radius="3" operator="dilate" in="SourceAlpha" result="effect2_innerShadow_173_861"/>
<feOffset dy="-23"/>
<feGaussianBlur stdDeviation="12.5"/>
<feComposite in2="hardAlpha" operator="arithmetic" k2="-1" k3="1"/>
<feColorMatrix type="matrix" values="0 0 0 0 0.134578 0 0 0 0 0.0464389 0 0 0 0 0.0143884 0 0 0 0.87 0"/>
<feBlend mode="normal" in2="effect1_innerShadow_173_861" result="effect2_innerShadow_173_861"/>
</filter>
</defs>
</svg>
