<svg width="49" height="39" viewBox="0 0 49 39" fill="none" xmlns="http://www.w3.org/2000/svg">
<path d="M42.6479 19.5818C42.3919 19.5846 42.1427 19.5092 41.9422 19.3683C41.7417 19.2274 41.6022 19.0297 41.5472 18.8084C40.8773 15.7767 36.7527 14.5217 34.1205 16.5501C33.3589 17.1367 32.8402 17.9314 32.6467 18.8084C32.5917 19.0297 32.4523 19.2274 32.2518 19.3683C32.0513 19.5092 31.802 19.5846 31.546 19.5818H26.8958V23.6971C26.8927 23.9236 26.9779 24.1442 27.1371 24.3216C27.2963 24.4991 27.5198 24.6225 27.7698 24.6712C28.8017 24.85 29.7313 25.3405 30.3995 26.059C31.0678 26.7774 31.4332 27.679 31.4332 28.6095C31.4332 29.54 31.0678 30.4416 30.3995 31.16C29.7313 31.8784 28.8017 32.369 27.7698 32.5478C27.5198 32.5964 27.2963 32.7199 27.1371 32.8973C26.9779 33.0747 26.8927 33.2953 26.8958 33.5219V37.6353H45.0307C45.6321 37.6353 46.2088 37.4239 46.634 37.0476C47.0592 36.6713 47.2981 36.1609 47.2981 35.6288V19.5818H42.6479Z" fill="#E8F4FF" stroke="#434343" stroke-width="1.98" stroke-linecap="round" stroke-linejoin="round"/>
<path d="M6.49559 5.6419C6.49208 5.86901 6.57737 6.09022 6.73701 6.26806C6.89666 6.44591 7.12085 6.56946 7.37162 6.61781C10.7954 7.20883 12.2156 10.8589 9.92345 13.1884C9.26063 13.8624 8.36258 14.3214 7.37162 14.4926C7.1212 14.5409 6.89728 14.6642 6.73767 14.8417C6.57807 15.0191 6.49256 15.2399 6.49559 15.4667V19.582H11.1458C11.4021 19.5793 11.6515 19.6549 11.8521 19.7962C12.0526 19.9374 12.1919 20.1356 12.2465 20.3572C12.9143 23.3871 17.0409 24.6421 19.6732 22.6137C20.4358 22.0281 20.9511 21.2328 21.1449 20.3554C21.1999 20.1338 21.3397 19.9358 21.5407 19.7949C21.7416 19.654 21.9913 19.5788 22.2477 19.582H26.8979V15.4667C26.9009 15.2399 26.8154 15.0191 26.6558 14.8417C26.4962 14.6642 26.2722 14.5409 26.0218 14.4926C22.596 13.9016 21.1779 10.2497 23.47 7.92025C24.1337 7.24532 25.0304 6.78928 26.0218 6.61781C26.2726 6.56946 26.4968 6.44591 26.6564 6.26806C26.8161 6.09022 26.9014 5.86901 26.8979 5.6419V1.52847H8.76296C8.16162 1.52847 7.5849 1.73988 7.15969 2.11618C6.73447 2.49248 6.49559 3.00285 6.49559 3.53502V5.6419Z" fill="#E8F4FF" stroke="#434343" stroke-width="1.98" stroke-linecap="round" stroke-linejoin="round"/>
<path d="M41.943 1.74132C42.1439 1.6004 42.3937 1.52518 42.65 1.52837L45.0307 1.52655C45.6321 1.52655 46.2088 1.73795 46.634 2.11426C47.0592 2.49056 47.2981 3.00093 47.2981 3.5331V19.5819H42.65C42.3937 19.585 42.1439 19.5098 41.943 19.3689C41.7421 19.228 41.6023 19.03 41.5472 18.8084C41.3538 17.9315 40.8351 17.1367 40.0734 16.5501C37.4412 14.5217 33.3167 15.7767 32.6488 18.8084C32.5938 19.03 32.454 19.228 32.253 19.3689C32.0521 19.5098 31.8024 19.585 31.546 19.5819H26.8979L26.8959 23.6971C26.8928 23.9239 26.9783 24.1447 27.1379 24.3221C27.2976 24.4996 27.5215 24.6229 27.7719 24.6712C28.7629 24.8424 29.6609 25.3014 30.3237 25.9755C32.6158 28.3049 31.1956 31.955 27.7719 32.546C27.5211 32.5943 27.2969 32.7179 27.1373 32.8957C26.9776 33.0736 26.8924 33.2948 26.8959 33.5219V37.6372H8.76304C8.16169 37.6372 7.58498 37.4258 7.15976 37.0495C6.73455 36.6732 6.49566 36.1628 6.49566 35.6306V33.5219C6.50185 33.0531 6.13494 32.6463 5.61963 32.546C4.62894 32.3753 3.73093 31.9169 3.0678 31.2436C0.775692 28.9141 2.19589 25.2622 5.61963 24.6712C5.87005 24.6229 6.09397 24.4996 6.25358 24.3221C6.41318 24.1447 6.49869 23.9239 6.49566 23.6971V19.5819H11.1438C11.4001 19.5787 11.6499 19.6539 11.8508 19.7948C12.0517 19.9357 12.1915 20.1337 12.2466 20.3553C12.4395 21.232 12.9574 22.0267 13.7183 22.6136C16.3526 24.642 20.4771 23.387 21.145 20.3571C21.1996 20.1352 21.3392 19.9368 21.5402 19.7955C21.7411 19.6542 21.9911 19.5788 22.2477 19.5819H26.8979V15.4666C26.901 15.2398 26.8154 15.019 26.6558 14.8416C26.4962 14.6641 26.2723 14.5408 26.0219 14.4925C25.0304 14.321 24.1338 13.8632 23.4701 13.1883C21.178 10.8588 22.5961 7.20874 26.0219 6.61772C26.2727 6.56937 26.4969 6.44581 26.6565 6.26796C26.8161 6.09012 26.9014 5.86891 26.8979 5.6418V1.52837H31.546C31.8024 1.52518 32.0521 1.6004 32.253 1.74132C32.454 1.88224 32.5938 2.08022 32.6488 2.30181C32.8417 3.17853 33.3597 3.97325 34.1205 4.56009C36.7528 6.58853 40.8794 5.33352 41.5472 2.30181C41.6023 2.08022 41.7421 1.88224 41.943 1.74132Z" fill="#E8F4FF"/>
<path d="M26.8979 19.5819V15.4666C26.901 15.2398 26.8154 15.019 26.6558 14.8416C26.4962 14.6641 26.2723 14.5408 26.0219 14.4925C25.0304 14.321 24.1338 13.8632 23.4701 13.1883C21.178 10.8588 22.5961 7.20874 26.0219 6.61772C26.2727 6.56937 26.4969 6.44581 26.6565 6.26796C26.8161 6.09012 26.9014 5.86891 26.8979 5.6418V1.52837H31.546C31.8024 1.52518 32.0521 1.6004 32.253 1.74132C32.454 1.88224 32.5938 2.08022 32.6488 2.30181C32.8417 3.17853 33.3597 3.97325 34.1205 4.56009C36.7528 6.58853 40.8794 5.33352 41.5472 2.30181C41.6023 2.08022 41.7421 1.88224 41.943 1.74132C42.1439 1.6004 42.3937 1.52518 42.65 1.52837L45.0307 1.52655C45.6321 1.52655 46.2088 1.73795 46.634 2.11426C47.0592 2.49056 47.2981 3.00093 47.2981 3.5331V19.5819H42.65C42.3937 19.585 42.1439 19.5098 41.943 19.3689C41.7421 19.228 41.6023 19.03 41.5472 18.8084C41.3538 17.9315 40.8351 17.1367 40.0734 16.5501C37.4412 14.5217 33.3167 15.7767 32.6488 18.8084C32.5938 19.03 32.454 19.228 32.253 19.3689C32.0521 19.5098 31.8024 19.585 31.546 19.5819H26.8979ZM26.8979 19.5819L26.8959 23.6971C26.8928 23.9239 26.9783 24.1447 27.1379 24.3222C27.2976 24.4996 27.5215 24.6229 27.7719 24.6712C28.7629 24.8424 29.6609 25.3014 30.3237 25.9755C32.6158 28.3049 31.1956 31.955 27.7719 32.546C27.5211 32.5943 27.2969 32.7179 27.1373 32.8957C26.9776 33.0736 26.8924 33.2948 26.8959 33.5219V37.6372H8.76304C8.16169 37.6372 7.58498 37.4258 7.15976 37.0495C6.73455 36.6732 6.49566 36.1628 6.49566 35.6306V33.5219C6.50185 33.0531 6.13494 32.6463 5.61963 32.546C4.62894 32.3753 3.73093 31.9169 3.0678 31.2436C0.775692 28.9141 2.19589 25.2622 5.61963 24.6712C5.87005 24.6229 6.09397 24.4996 6.25358 24.3222C6.41318 24.1447 6.49869 23.9239 6.49566 23.6971V19.5819H11.1438C11.4001 19.5787 11.6499 19.6539 11.8508 19.7948C12.0517 19.9357 12.1915 20.1337 12.2466 20.3553C12.4395 21.232 12.9574 22.0267 13.7183 22.6136C16.3526 24.642 20.4771 23.387 21.145 20.3571C21.1996 20.1352 21.3392 19.9368 21.5402 19.7955C21.7412 19.6542 21.9911 19.5788 22.2477 19.5819H26.8979Z" stroke="#434343" stroke-width="1.98" stroke-linecap="round" stroke-linejoin="round"/>
</svg>
