<svg width="61" height="51" viewBox="0 0 61 51" fill="none" xmlns="http://www.w3.org/2000/svg">
<g filter="url(#filter0_d_117_664)">
<path d="M50.32 21.291C50.0356 21.294 49.7586 21.2102 49.5359 21.0537C49.3131 20.8972 49.1581 20.6774 49.097 20.4316C48.3527 17.063 43.7698 15.6686 40.8451 17.9224C39.9989 18.5741 39.4226 19.4572 39.2076 20.4316C39.1465 20.6774 38.9915 20.8972 38.7687 21.0537C38.546 21.2102 38.269 21.294 37.9846 21.291H32.8177V25.8635C32.8142 26.1152 32.9089 26.3603 33.0858 26.5574C33.2627 26.7546 33.511 26.8917 33.7888 26.9458C34.9353 27.1445 35.9682 27.6895 36.7107 28.4878C37.4532 29.286 37.8592 30.2878 37.8592 31.3217C37.8592 32.3556 37.4532 33.3573 36.7107 34.1556C35.9682 34.9538 34.9353 35.4989 33.7888 35.6976C33.511 35.7516 33.2627 35.8888 33.0858 36.0859C32.9089 36.2831 32.8142 36.5282 32.8177 36.7799V41.3504H52.9676C53.6358 41.3504 54.2766 41.1155 54.749 40.6974C55.2215 40.2793 55.4869 39.7122 55.4869 39.1209V21.291H50.32Z" fill="#FF5C5C" stroke="#434343" stroke-width="2.2" stroke-linecap="round" stroke-linejoin="round"/>
<path d="M10.1509 5.80216C10.147 6.05451 10.2417 6.30029 10.4191 6.4979C10.5965 6.6955 10.8456 6.83279 11.1242 6.88651C14.9284 7.5432 16.5064 11.5989 13.9596 14.1871C13.2231 14.936 12.2253 15.446 11.1242 15.6363C10.846 15.6899 10.5972 15.8269 10.4199 16.0241C10.2425 16.2213 10.1475 16.4666 10.1509 16.7186V21.2911H15.3177C15.6025 21.2881 15.8797 21.3722 16.1025 21.5292C16.3253 21.6861 16.4801 21.9063 16.5408 22.1525C17.2828 25.5191 21.8679 26.9135 24.7926 24.6597C25.64 24.0091 26.2126 23.1254 26.4279 22.1505C26.489 21.9043 26.6444 21.6843 26.8676 21.5277C27.0909 21.3711 27.3684 21.2876 27.6532 21.2911H32.8201V16.7186C32.8234 16.4666 32.7284 16.2213 32.5511 16.0241C32.3737 15.8269 32.1249 15.6899 31.8467 15.6363C28.0402 14.9796 26.4645 10.9219 29.0113 8.33366C29.7488 7.58374 30.7451 7.07703 31.8467 6.88651C32.1253 6.83279 32.3744 6.6955 32.5518 6.4979C32.7292 6.30029 32.8239 6.05451 32.8201 5.80216V1.23169H12.6702C12.002 1.23169 11.3612 1.46658 10.8888 1.8847C10.4163 2.30281 10.1509 2.86989 10.1509 3.46119V5.80216Z" fill="#5CD65C" stroke="#434343" stroke-width="2.2" stroke-linecap="round" stroke-linejoin="round"/>
<path fill-rule="evenodd" clip-rule="evenodd" d="M32.8178 25.8635L32.7866 21.279L27.6532 21.291C27.3681 21.2876 27.0903 21.3714 26.867 21.5284C26.6437 21.6854 26.4886 21.9058 26.4279 22.1524C25.6859 25.5189 21.103 26.9134 18.176 24.6596C17.3306 24.0075 16.7551 23.1245 16.5408 22.1504C16.4796 21.9042 16.3243 21.6842 16.101 21.5276C15.8778 21.371 15.6003 21.2875 15.3155 21.291H10.1509V25.8635C10.1543 26.1155 10.0593 26.3608 9.88192 26.558C9.70458 26.7552 9.45578 26.8922 9.17753 26.9458C5.37338 27.6025 3.79538 31.6602 6.34217 34.2485C7.07897 34.9966 8.07677 35.5059 9.17753 35.6956C9.7501 35.8071 10.1578 36.2591 10.1509 36.78V39.123C10.1509 39.7143 10.4163 40.2813 10.8888 40.6994C11.3613 41.1176 12.002 41.3525 12.6702 41.3525H32.8178V36.78C32.8139 36.5276 32.9087 36.2818 33.086 36.0842C33.2634 35.8866 33.5125 35.7493 33.7912 35.6956C37.5953 35.0389 39.1733 30.9832 36.6265 28.395C35.8901 27.6461 34.8922 27.1361 33.7912 26.9458C33.5129 26.8922 33.2641 26.7552 33.0868 26.558C32.9094 26.3608 32.8144 26.1155 32.8178 25.8635Z" fill="#FFEF11"/>
<path d="M50.3224 1.23158C50.0376 1.22803 49.7601 1.31161 49.5368 1.46819C49.3136 1.62476 49.1583 1.84474 49.0971 2.09095C48.355 5.45952 43.7699 6.85397 40.8452 4.60015C39.9998 3.9481 39.4243 3.06509 39.21 2.09095C39.1488 1.84474 38.9935 1.62476 38.7702 1.46819C38.547 1.31161 38.2695 1.22803 37.9847 1.23158H32.8201V5.80206C32.824 6.0544 32.7292 6.30018 32.5518 6.49779C32.3744 6.6954 32.1254 6.83268 31.8467 6.8864C28.0403 7.54309 26.4646 11.5988 29.0113 14.187C29.7488 14.9369 30.7451 15.4457 31.8467 15.6362C32.125 15.6898 32.3738 15.8268 32.5511 16.024C32.7284 16.2212 32.8234 16.4665 32.8201 16.7185L32.7866 21.279L37.9847 21.291C38.2695 21.2945 38.547 21.211 38.7702 21.0544C38.9935 20.8978 39.1488 20.6778 39.21 20.4316C39.952 17.0631 44.5349 15.6686 47.4595 17.9224C48.3058 18.5742 48.8821 19.4572 49.0971 20.4316C49.1583 20.6778 49.3136 20.8978 49.5368 21.0544C49.7601 21.211 50.0376 21.2945 50.3224 21.291H55.487V3.45905C55.487 2.86775 55.2215 2.30067 54.7491 1.88256C54.2766 1.46445 53.6358 1.22955 52.9677 1.22955L50.3224 1.23158Z" fill="#54ACFF"/>
<path d="M32.7866 21.279L32.8201 16.7185C32.8234 16.4665 32.7284 16.2212 32.5511 16.024C32.3738 15.8268 32.125 15.6898 31.8467 15.6362C30.7451 15.4457 29.7488 14.9369 29.0113 14.187C26.4646 11.5988 28.0403 7.54309 31.8467 6.8864C32.1254 6.83268 32.3744 6.6954 32.5518 6.49779C32.7292 6.30018 32.824 6.0544 32.8201 5.80206V1.23158H37.9847C38.2695 1.22803 38.547 1.31161 38.7702 1.46819C38.9935 1.62476 39.1488 1.84474 39.21 2.09095C39.4243 3.06509 39.9998 3.9481 40.8452 4.60015C43.7699 6.85397 48.355 5.45952 49.0971 2.09095C49.1583 1.84474 49.3136 1.62476 49.5368 1.46819C49.7601 1.31161 50.0376 1.22803 50.3224 1.23158L52.9677 1.22955C53.6358 1.22955 54.2766 1.46445 54.7491 1.88256C55.2215 2.30067 55.487 2.86775 55.487 3.45905V21.291H50.3224C50.0376 21.2945 49.7601 21.211 49.5368 21.0544C49.3136 20.8978 49.1583 20.6778 49.0971 20.4316C48.8821 19.4572 48.3058 18.5742 47.4595 17.9224C44.5349 15.6686 39.952 17.0631 39.21 20.4316C39.1488 20.6778 38.9935 20.8978 38.7702 21.0544C38.547 21.211 38.2695 21.2945 37.9847 21.291L32.7866 21.279ZM32.7866 21.279L32.8178 25.8635C32.8144 26.1155 32.9094 26.3608 33.0868 26.558C33.2641 26.7552 33.5129 26.8922 33.7912 26.9458C34.8922 27.1361 35.8901 27.6461 36.6265 28.395C39.1733 30.9832 37.5953 35.0389 33.7912 35.6956C33.5125 35.7493 33.2634 35.8866 33.086 36.0842C32.9087 36.2818 32.8139 36.5276 32.8178 36.78V41.3525H12.6702C12.002 41.3525 11.3613 41.1176 10.8888 40.6994C10.4163 40.2813 10.1509 39.7143 10.1509 39.123V36.78C10.1578 36.2591 9.7501 35.8071 9.17753 35.6956C8.07677 35.5059 7.07897 34.9966 6.34217 34.2485C3.79538 31.6602 5.37338 27.6025 9.17753 26.9458C9.45578 26.8922 9.70458 26.7552 9.88192 26.558C10.0593 26.3608 10.1543 26.1155 10.1509 25.8635V21.291H15.3155C15.6003 21.2875 15.8778 21.371 16.101 21.5276C16.3243 21.6842 16.4796 21.9042 16.5408 22.1504C16.7551 23.1245 17.3306 24.0075 18.176 24.6596C21.103 26.9134 25.6859 25.5189 26.4279 22.1524C26.4886 21.9058 26.6437 21.6854 26.867 21.5284C27.0903 21.3714 27.3681 21.2876 27.6532 21.291L32.7866 21.279Z" stroke="#434343" stroke-width="2.2" stroke-linecap="round" stroke-linejoin="round"/>
</g>
<defs>
<filter id="filter0_d_117_664" x="-0.991821" y="0" width="62" height="51" filterUnits="userSpaceOnUse" color-interpolation-filters="sRGB">
<feFlood flood-opacity="0" result="BackgroundImageFix"/>
<feColorMatrix in="SourceAlpha" type="matrix" values="0 0 0 0 0 0 0 0 0 0 0 0 0 0 0 0 0 0 127 0" result="hardAlpha"/>
<feOffset dy="4"/>
<feGaussianBlur stdDeviation="2"/>
<feComposite in2="hardAlpha" operator="out"/>
<feColorMatrix type="matrix" values="0 0 0 0 0 0 0 0 0 0 0 0 0 0 0 0 0 0 0.25 0"/>
<feBlend mode="normal" in2="BackgroundImageFix" result="effect1_dropShadow_117_664"/>
<feBlend mode="normal" in="SourceGraphic" in2="effect1_dropShadow_117_664" result="shape"/>
</filter>
</defs>
</svg>
