<svg width="54" height="53" viewBox="0 0 54 53" fill="none" xmlns="http://www.w3.org/2000/svg">
<g filter="url(#filter0_d_117_762)">
<path d="M28.7124 2.23224C28.7124 1.67995 29.1601 1.23224 29.7124 1.23224H47.1135C47.6658 1.23224 48.1135 1.67995 48.1135 2.23224V18.9147C48.1135 19.467 47.6658 19.9147 47.1135 19.9147H29.7124C29.1601 19.9147 28.7124 19.467 28.7124 18.9147V2.23224Z" fill="#FF0000"/>
<path d="M28.7124 25.5854C28.7124 25.0331 29.1601 24.5854 29.7124 24.5854H47.1135C47.6658 24.5854 48.1135 25.0331 48.1135 25.5854V42.2679C48.1135 42.8202 47.6658 43.2679 47.1135 43.2679H29.7124C29.1601 43.2679 28.7124 42.8202 28.7124 42.2679V25.5854Z" fill="#A33DFF"/>
<path d="M5 25.5854C5 25.0331 5.44772 24.5854 6 24.5854H23.4011C23.9533 24.5854 24.4011 25.0331 24.4011 25.5854V42.2679C24.4011 42.8202 23.9533 43.2679 23.4011 43.2679H6C5.44772 43.2679 5 42.8202 5 42.2679V25.5854Z" fill="#17F359"/>
<path d="M5 2.23224C5 1.67995 5.44772 1.23224 6 1.23224H23.4011C23.9533 1.23224 24.4011 1.67995 24.4011 2.23224V18.9147C24.4011 19.467 23.9533 19.9147 23.4011 19.9147H6C5.44772 19.9147 5 19.467 5 18.9147V2.23224Z" fill="#1DCDFF"/>
<path d="M28.7124 2.23224C28.7124 1.67995 29.1601 1.23224 29.7124 1.23224H47.1135C47.6658 1.23224 48.1135 1.67995 48.1135 2.23224V18.9147C48.1135 19.467 47.6658 19.9147 47.1135 19.9147H29.7124C29.1601 19.9147 28.7124 19.467 28.7124 18.9147V2.23224Z" stroke="#434343" stroke-width="2" stroke-linejoin="round"/>
<path d="M28.7124 25.5854C28.7124 25.0331 29.1601 24.5854 29.7124 24.5854H47.1135C47.6658 24.5854 48.1135 25.0331 48.1135 25.5854V42.2679C48.1135 42.8202 47.6658 43.2679 47.1135 43.2679H29.7124C29.1601 43.2679 28.7124 42.8202 28.7124 42.2679V25.5854Z" stroke="#434343" stroke-width="2" stroke-linejoin="round"/>
<path d="M5 25.5854C5 25.0331 5.44772 24.5854 6 24.5854H23.4011C23.9533 24.5854 24.4011 25.0331 24.4011 25.5854V42.2679C24.4011 42.8202 23.9533 43.2679 23.4011 43.2679H6C5.44772 43.2679 5 42.8202 5 42.2679V25.5854Z" stroke="#434343" stroke-width="2" stroke-linejoin="round"/>
<path d="M5 2.23224C5 1.67995 5.44772 1.23224 6 1.23224H23.4011C23.9533 1.23224 24.4011 1.67995 24.4011 2.23224V18.9147C24.4011 19.467 23.9533 19.9147 23.4011 19.9147H6C5.44772 19.9147 5 19.467 5 18.9147V2.23224Z" stroke="#434343" stroke-width="2" stroke-linejoin="round"/>
<path d="M10.803 16.3353C10.0559 16.3353 9.54126 15.8704 9.54126 15.2064C9.54126 14.9324 9.61597 14.617 9.80688 14.0609L12.3137 6.71466C12.762 5.36993 13.4094 4.83038 14.6047 4.83038C15.8 4.83038 16.4309 5.36163 16.8875 6.71466L19.386 14.0609C19.5354 14.5257 19.6101 14.8577 19.6101 15.1483C19.6101 15.8704 19.0955 16.3353 18.3069 16.3353C17.5764 16.3353 17.1531 15.9368 16.8792 14.9988L16.4475 13.6458H12.6375L12.1975 14.9988C11.9236 15.9617 11.5334 16.3353 10.803 16.3353ZM13.2019 11.6619H15.8914L14.6213 7.37042H14.4885L13.2019 11.6619Z" fill="#434343"/>
<path d="M10.803 16.3353C10.0559 16.3353 9.54126 15.8704 9.54126 15.2064C9.54126 14.9324 9.61597 14.617 9.80688 14.0609L12.3137 6.71466C12.762 5.36993 13.4094 4.83038 14.6047 4.83038C15.8 4.83038 16.4309 5.36163 16.8875 6.71466L19.386 14.0609C19.5354 14.5257 19.6101 14.8577 19.6101 15.1483C19.6101 15.8704 19.0955 16.3353 18.3069 16.3353C17.5764 16.3353 17.1531 15.9368 16.8792 14.9988L16.4475 13.6458H12.6375L12.1975 14.9988C11.9236 15.9617 11.5334 16.3353 10.803 16.3353ZM13.2019 11.6619H15.8914L14.6213 7.37042H14.4885L13.2019 11.6619Z" fill="#434343"/>
<path d="M10.803 16.3353C10.0559 16.3353 9.54126 15.8704 9.54126 15.2064C9.54126 14.9324 9.61597 14.617 9.80688 14.0609L12.3137 6.71466C12.762 5.36993 13.4094 4.83038 14.6047 4.83038C15.8 4.83038 16.4309 5.36163 16.8875 6.71466L19.386 14.0609C19.5354 14.5257 19.6101 14.8577 19.6101 15.1483C19.6101 15.8704 19.0955 16.3353 18.3069 16.3353C17.5764 16.3353 17.1531 15.9368 16.8792 14.9988L16.4475 13.6458H12.6375L12.1975 14.9988C11.9236 15.9617 11.5334 16.3353 10.803 16.3353ZM13.2019 11.6619H15.8914L14.6213 7.37042H14.4885L13.2019 11.6619Z" fill="#434343"/>
<path d="M34.3037 14.6751V6.48224C34.3037 5.46954 34.8599 4.91339 35.8975 4.91339H39.3257C41.4673 4.91339 42.812 5.98419 42.812 7.69415C42.812 8.98907 42.0317 9.93536 40.7866 10.1678V10.2923C42.3057 10.3919 43.3516 11.5042 43.3516 13.0316C43.3516 14.9573 41.7744 16.244 39.4087 16.244H35.8975C34.8599 16.244 34.3037 15.6961 34.3037 14.6751ZM37.0181 9.52032H38.3379C39.5913 9.52032 40.1309 8.97247 40.1309 8.1673C40.1309 7.37042 39.583 6.85577 38.6284 6.85577H37.0181V9.52032ZM37.0181 14.3016H38.4873C39.9565 14.3016 40.5625 13.7288 40.5625 12.8074C40.5625 11.886 39.9565 11.2801 38.7612 11.2801H37.0181V14.3016Z" fill="#434343"/>
<path d="M34.0132 38.6158V30.4229C34.0132 29.4019 34.5776 28.8541 35.6152 28.8541H38.4624C41.7993 28.8541 43.584 30.8297 43.584 34.5152C43.584 38.209 41.7993 40.1846 38.4624 40.1846H35.6152C34.5776 40.1846 34.0132 39.6368 34.0132 38.6158ZM36.7607 38.0015H38.0391C39.9233 38.0015 40.7783 36.9224 40.7783 34.5152C40.7783 32.1163 39.9233 31.0289 38.0391 31.0289H36.7607V38.0015Z" fill="#434343"/>
<path d="M9.88159 35.088V33.8594C9.88159 30.5972 11.6829 28.6465 14.804 28.6465C16.2815 28.6465 17.593 29.0948 18.4065 29.8834C18.9543 30.4146 19.2864 31.0621 19.2864 31.5767C19.2864 32.2408 18.8298 32.6807 18.1658 32.6807C17.7258 32.6807 17.4021 32.5147 16.9705 32.0748C16.3479 31.3111 15.7668 30.9625 14.97 30.9625C13.4758 30.9625 12.6292 32.0665 12.6292 33.9839V34.9634C12.6292 37.0054 13.4592 38.1094 14.97 38.1094C15.7751 38.1094 16.4226 37.7608 17.012 37.0137C17.4519 36.5572 17.7507 36.3995 18.1741 36.3995C18.8464 36.3995 19.303 36.8477 19.303 37.5035C19.303 38.1592 18.8547 38.8897 18.1326 39.4293C17.3191 40.0601 16.1736 40.4337 14.804 40.4337C11.6331 40.4337 9.88159 38.4913 9.88159 35.088Z" fill="#434343"/>
</g>
<defs>
<filter id="filter0_d_117_762" x="-0.931641" y="0" width="55" height="53" filterUnits="userSpaceOnUse" color-interpolation-filters="sRGB">
<feFlood flood-opacity="0" result="BackgroundImageFix"/>
<feColorMatrix in="SourceAlpha" type="matrix" values="0 0 0 0 0 0 0 0 0 0 0 0 0 0 0 0 0 0 127 0" result="hardAlpha"/>
<feOffset dy="4"/>
<feGaussianBlur stdDeviation="2"/>
<feComposite in2="hardAlpha" operator="out"/>
<feColorMatrix type="matrix" values="0 0 0 0 0 0 0 0 0 0 0 0 0 0 0 0 0 0 0.35 0"/>
<feBlend mode="normal" in2="BackgroundImageFix" result="effect1_dropShadow_117_762"/>
<feBlend mode="normal" in="SourceGraphic" in2="effect1_dropShadow_117_762" result="shape"/>
</filter>
</defs>
</svg>
