<svg width="47" height="47" viewBox="0 0 47 47" fill="none" xmlns="http://www.w3.org/2000/svg">
<path d="M1.86182 3.18221C1.86182 2.5747 2.3543 2.08221 2.96182 2.08221H20.1629C20.7704 2.08221 21.2629 2.5747 21.2629 3.18221V19.6647C21.2629 20.2722 20.7704 20.7647 20.1629 20.7647H2.96182C2.3543 20.7647 1.86182 20.2722 1.86182 19.6647V3.18221ZM1.86182 26.5353C1.86182 25.9278 2.3543 25.4353 2.96182 25.4353H20.1629C20.7704 25.4353 21.2629 25.9278 21.2629 26.5353V43.0178C21.2629 43.6254 20.7704 44.1178 20.1629 44.1178H2.96182C2.3543 44.1178 1.86182 43.6254 1.86182 43.0178V26.5353ZM25.5742 3.18221C25.5742 2.5747 26.0667 2.08221 26.6742 2.08221H43.8753C44.4828 2.08221 44.9753 2.5747 44.9753 3.18221V19.6647C44.9753 20.2722 44.4828 20.7647 43.8753 20.7647H26.6742C26.0667 20.7647 25.5742 20.2722 25.5742 19.6647V3.18221ZM25.5742 26.5353C25.5742 25.9278 26.0667 25.4353 26.6742 25.4353H43.8753C44.4828 25.4353 44.9753 25.9278 44.9753 26.5353V43.0178C44.9753 43.6254 44.4828 44.1178 43.8753 44.1178H26.6742C26.0667 44.1178 25.5742 43.6254 25.5742 43.0178V26.5353Z" fill="#E8F4FF" stroke="#434343" stroke-width="2.2"/>
</svg>
