<svg width="57" height="57" viewBox="0 0 57 57" fill="none" xmlns="http://www.w3.org/2000/svg">
<path d="M17.8779 1.62671V10.8267M38.3224 1.62671V10.8267" stroke="#434343" stroke-width="2.2" stroke-linecap="round" stroke-linejoin="round"/>
<g filter="url(#filter0_d_117_590)">
<path d="M45.989 6.22681H10.2112C7.38842 6.22681 5.1001 8.28629 5.1001 10.8268V20.089H51.1001V10.8268C51.1001 8.28629 48.8118 6.22681 45.989 6.22681Z" fill="#80C1FF"/>
<path d="M45.989 6.22681H10.2112C7.38842 6.22681 5.1001 8.28629 5.1001 10.8268V20.089H51.1001V10.8268C51.1001 8.28629 48.8118 6.22681 45.989 6.22681Z" fill="white" fill-opacity="0.31"/>
<path d="M45.989 47.6267C48.8118 47.6267 51.1001 45.5673 51.1001 43.0267V20.089H5.1001V43.0267C5.1001 45.5673 7.38842 47.6267 10.2112 47.6267H45.989Z" fill="#54ACFF"/>
<path d="M5.1001 20.089V43.0267C5.1001 45.5673 7.38842 47.6267 10.2112 47.6267H45.989C48.8118 47.6267 51.1001 45.5673 51.1001 43.0267V20.089M5.1001 20.089V10.8268C5.1001 8.28629 7.38842 6.22681 10.2112 6.22681H45.989C48.8118 6.22681 51.1001 8.28629 51.1001 10.8268V20.089M5.1001 20.089H51.1001" stroke="#434343" stroke-width="2.2" stroke-linecap="round" stroke-linejoin="round"/>
</g>
<path d="M5.1001 20.0268H51.1001" stroke="#434343" stroke-width="2.2" stroke-linecap="round" stroke-linejoin="round"/>
<defs>
<filter id="filter0_d_117_590" x="0" y="5.12683" width="56.2002" height="51.5999" filterUnits="userSpaceOnUse" color-interpolation-filters="sRGB">
<feFlood flood-opacity="0" result="BackgroundImageFix"/>
<feColorMatrix in="SourceAlpha" type="matrix" values="0 0 0 0 0 0 0 0 0 0 0 0 0 0 0 0 0 0 127 0" result="hardAlpha"/>
<feOffset dy="4"/>
<feGaussianBlur stdDeviation="2"/>
<feComposite in2="hardAlpha" operator="out"/>
<feColorMatrix type="matrix" values="0 0 0 0 0 0 0 0 0 0 0 0 0 0 0 0 0 0 0.25 0"/>
<feBlend mode="normal" in2="BackgroundImageFix" result="effect1_dropShadow_117_590"/>
<feBlend mode="normal" in="SourceGraphic" in2="effect1_dropShadow_117_590" result="shape"/>
</filter>
</defs>
</svg>
