<svg width="50" height="49" viewBox="0 0 50 49" fill="none" xmlns="http://www.w3.org/2000/svg">
<path d="M14.8564 1.62674V10.8267M35.3009 1.62674V10.8267" stroke="#434343" stroke-width="2.2" stroke-linecap="round" stroke-linejoin="round"/>
<path d="M42.9675 6.22684H7.18972C4.36694 6.22684 2.07861 8.28632 2.07861 10.8268V20.0891H48.0786V10.8268C48.0786 8.28632 45.7903 6.22684 42.9675 6.22684Z" fill="#E8F4FF"/>
<path d="M42.9675 47.6268C45.7903 47.6268 48.0786 45.5673 48.0786 43.0268V20.0891H2.07861V43.0268C2.07861 45.5673 4.36694 47.6268 7.18972 47.6268H42.9675Z" fill="#E8F4FF"/>
<path d="M2.07861 20.0891V43.0268C2.07861 45.5673 4.36694 47.6268 7.18972 47.6268H42.9675C45.7903 47.6268 48.0786 45.5673 48.0786 43.0268V20.0891M2.07861 20.0891V10.8268C2.07861 8.28632 4.36694 6.22684 7.18972 6.22684H42.9675C45.7903 6.22684 48.0786 8.28632 48.0786 10.8268V20.0891M2.07861 20.0891H48.0786" stroke="#434343" stroke-width="2.2" stroke-linecap="round" stroke-linejoin="round"/>
<path d="M2.07861 20.0268H48.0786" stroke="#434343" stroke-width="2.2" stroke-linecap="round" stroke-linejoin="round"/>
</svg>
