<svg width="43" height="43" viewBox="0 0 43 43" fill="none" xmlns="http://www.w3.org/2000/svg">
<path fill-rule="evenodd" clip-rule="evenodd" d="M39.0702 19.1417C40.5047 17.195 41.0722 14.8115 41.0666 12.3933C41.0666 6.20692 36.1407 1.19092 30.0665 1.19092C25.7106 1.19092 21.9486 3.76492 20.1666 7.50492V19.1121H33.0674C35.6697 19.1121 37.27 19.1121 38.4039 19.5227L39.0702 19.1417Z" fill="#E8F4FF"/>
<path d="M15.4674 41.5169H27.0657C32.9749 41.5169 35.9295 41.5147 37.9821 39.9527C38.5717 39.5025 39.088 38.9767 39.5309 38.3753C41.0665 36.2853 41.0666 33.2757 41.0666 27.2609C41.0666 23.8223 41.0666 22.1019 40.1888 20.9095C39.9365 20.5649 39.6417 20.2642 39.3043 20.0075C39.036 19.8026 38.7405 19.6445 38.4039 19.5227C37.27 19.1121 35.6697 19.1121 33.0674 19.1121H20.1666H9.46575C6.08875 19.1121 4.40135 19.1121 3.22875 20.0075C2.89142 20.2642 2.59662 20.5649 2.34435 20.9095C1.46655 22.1019 1.46655 23.8223 1.46655 27.2609C1.46655 33.2757 1.46655 36.2853 3.00215 38.3753C3.44053 38.973 3.96292 39.5043 4.55315 39.9527C6.60355 41.5169 9.55815 41.5169 15.4674 41.5169Z" fill="#E8F4FF"/>
<path d="M16.8666 28.0727H25.6666M20.1666 19.1121H9.46575C6.08875 19.1121 4.40135 19.1121 3.22875 20.0075C2.89142 20.2642 2.59662 20.5649 2.34435 20.9095C1.46655 22.1019 1.46655 23.8223 1.46655 27.2609C1.46655 33.2757 1.46655 36.2853 3.00215 38.3753C3.44053 38.973 3.96292 39.5043 4.55315 39.9527C6.60355 41.5169 9.55815 41.5169 15.4674 41.5169H27.0657C32.9749 41.5169 35.9295 41.5147 37.9821 39.9527C38.5717 39.5025 39.088 38.9767 39.5309 38.3753C41.0665 36.2853 41.0666 33.2757 41.0666 27.2609C41.0666 23.8223 41.0666 22.1019 40.1888 20.9095C39.9365 20.5649 39.6417 20.2642 39.3043 20.0075C39.036 19.8026 38.7405 19.6445 38.4039 19.5227C37.27 19.1121 35.6697 19.1121 33.0674 19.1121H20.1666ZM38.4039 19.5227L39.0702 19.1417C40.5047 17.195 41.0722 14.8115 41.0666 12.3933C41.0666 6.20692 36.1407 1.19092 30.0665 1.19092C25.7106 1.19092 21.9486 3.76492 20.1666 7.50492V19.1121" stroke="#434343" stroke-width="2" stroke-linecap="round" stroke-linejoin="round"/>
<path d="M12.1462 2.20361C12.2704 2.16952 12.4295 2.19082 12.574 2.36182L12.575 2.36279L17.3132 7.9585C17.5629 8.25895 17.8806 8.49572 18.241 8.64697C18.6058 8.80008 19.0031 8.86173 19.3972 8.82666L19.408 8.82568L26.3464 8.13232C26.4938 8.11785 26.6527 8.18576 26.7683 8.37354C26.8849 8.56315 26.9016 8.79535 26.7957 8.99365L26.7947 8.99561L23.3738 15.4263L23.3699 15.4321C23.1887 15.7784 23.0868 16.1608 23.072 16.5513C23.0574 16.9398 23.13 17.3267 23.283 17.6841V17.6851L23.4646 18.1138H6.69702L2.73413 15.6333L2.73315 15.6323L2.67163 15.5884C2.53695 15.4753 2.45957 15.296 2.46753 15.0913C2.47672 14.8586 2.58931 14.7047 2.73413 14.6372V14.6362L9.08179 11.6714C9.08701 11.6689 9.09223 11.6661 9.09741 11.6636C9.4505 11.491 9.75826 11.2371 9.99487 10.9233C10.2291 10.6126 10.387 10.2514 10.4568 9.86865L11.8318 2.58838C11.8772 2.3475 12.0195 2.23858 12.1462 2.20361Z" fill="#E8F4FF" stroke="#434343" stroke-width="2" stroke-linecap="round" stroke-linejoin="round"/>
</svg>
