<svg width="42" height="44" viewBox="0 0 42 44" fill="none" xmlns="http://www.w3.org/2000/svg">
<g clip-path="url(#clip0_162_1097)">
<path fill-rule="evenodd" clip-rule="evenodd" d="M38.8036 19.7902C40.2381 17.8434 40.8056 15.4599 40.7999 13.0418C40.7999 6.85536 35.8741 1.83936 29.7999 1.83936C25.4439 1.83936 21.6819 4.41335 19.8999 8.15336V19.7606H32.8007C35.4031 19.7606 37.0034 19.7606 38.1373 20.1711L38.8036 19.7902Z" fill="#3198FF"/>
<path d="M15.2008 42.1654H26.7991C32.7083 42.1654 35.6629 42.1632 37.7155 40.6012C38.3051 40.1509 38.8214 39.6251 39.2643 39.0238C40.7999 36.9338 40.7999 33.9242 40.7999 27.9094C40.7999 24.4708 40.7999 22.7504 39.9221 21.558C39.6699 21.2133 39.3751 20.9126 39.0377 20.656C38.7694 20.451 38.4739 20.293 38.1373 20.1711C37.0034 19.7606 35.4031 19.7606 32.8007 19.7606H19.8999H9.19915C5.82215 19.7606 4.13475 19.7606 2.96215 20.656C2.62482 20.9126 2.33002 21.2133 2.07775 21.558C1.19995 22.7504 1.19995 24.4708 1.19995 27.9094C1.19995 33.9242 1.19995 36.9338 2.73555 39.0238C3.17393 39.6215 3.69632 40.1527 4.28655 40.6012C6.33695 42.1654 9.29155 42.1654 15.2008 42.1654Z" fill="#C89027"/>
<path d="M16.5999 28.7212H25.3999M19.8999 19.7606H9.19915C5.82215 19.7606 4.13475 19.7606 2.96215 20.656C2.62482 20.9126 2.33002 21.2133 2.07775 21.558C1.19995 22.7504 1.19995 24.4708 1.19995 27.9094C1.19995 33.9242 1.19995 36.9338 2.73555 39.0238C3.17393 39.6215 3.69632 40.1527 4.28655 40.6012C6.33695 42.1654 9.29155 42.1654 15.2008 42.1654H26.7991C32.7083 42.1654 35.6629 42.1632 37.7155 40.6012C38.3051 40.1509 38.8214 39.6251 39.2643 39.0238C40.7999 36.9338 40.7999 33.9242 40.7999 27.9094C40.7999 24.4708 40.7999 22.7504 39.9221 21.558C39.6699 21.2133 39.3751 20.9126 39.0377 20.656C38.7694 20.451 38.4739 20.293 38.1373 20.1711C37.0034 19.7606 35.4031 19.7606 32.8007 19.7606H19.8999ZM38.1373 20.1711L38.8036 19.7902C40.2381 17.8434 40.8056 15.4599 40.7999 13.0418C40.7999 6.85536 35.8741 1.83936 29.7999 1.83936C25.4439 1.83936 21.6819 4.41335 19.8999 8.15336V19.7606" stroke="#434343" stroke-width="2" stroke-linecap="round" stroke-linejoin="round"/>
<path d="M11.8796 2.85205C12.0038 2.81796 12.1629 2.83926 12.3074 3.01025L12.3083 3.01123L17.0466 8.60693C17.2963 8.90738 17.614 9.14416 17.9744 9.29541C18.3392 9.44852 18.7365 9.51017 19.1306 9.4751L19.1414 9.47412L26.0798 8.78076C26.2272 8.76629 26.3861 8.8342 26.5017 9.02197C26.6183 9.21159 26.635 9.44379 26.5291 9.64209L26.5281 9.64404L23.1072 16.0747L23.1033 16.0806C22.9221 16.4268 22.8202 16.8092 22.8054 17.1997C22.7908 17.5882 22.8634 17.9751 23.0164 18.3325V18.3335L23.198 18.7622H6.43042L2.46753 16.2817L2.46655 16.2808L2.40503 16.2368C2.27034 16.1237 2.19297 15.9445 2.20093 15.7397C2.21012 15.507 2.32271 15.3532 2.46753 15.2856V15.2847L8.81519 12.3198C8.82041 12.3174 8.82563 12.3145 8.83081 12.312C9.1839 12.1395 9.49166 11.8856 9.72827 11.5718C9.96247 11.261 10.1204 10.8998 10.1902 10.5171L11.5652 3.23682C11.6106 2.99594 11.7529 2.88702 11.8796 2.85205Z" fill="#F4C611" stroke="#434343" stroke-width="2" stroke-linecap="round" stroke-linejoin="round"/>
</g>
<defs>
<clipPath id="clip0_162_1097">
<rect width="42" height="44" fill="white"/>
</clipPath>
</defs>
</svg>
