<svg width="39" height="39" viewBox="0 0 39 39" fill="none" xmlns="http://www.w3.org/2000/svg">
<rect width="39" height="39" fill="#1E1E1E"/>
<g id="example_screens">
<rect width="3401" height="4237" transform="translate(-3256.65 -354)" fill="#2B2B2B"/>
<g id="BlankAACLayout">
<g id="AAC Screen">
<g id="Container">
<rect x="-328.147" y="-81" width="393" height="852" rx="10" fill="#F1F5F9"/>
<g id="si:bin-line">
<rect width="39" height="39" rx="5" fill="#D62124"/>
<path id="Vector" d="M9.21429 30C9.21429 30.7956 9.57551 31.5587 10.2185 32.1213C10.8615 32.6839 11.7335 33 12.6429 33H26.3571C27.2665 33 28.1385 32.6839 28.7815 32.1213C29.4245 31.5587 29.7857 30.7956 29.7857 30V12H9.21429V30ZM12.6429 15H26.3571V30H12.6429V15ZM25.5 7.5L23.7857 6H15.2143L13.5 7.5H7.5V10.5H31.5V7.5H25.5Z" fill="white"/>
</g>
</g>
</g>
</g>
</g>
</svg>
