<?xml version="1.0" encoding="UTF-8"?>
<!--Generator: Apple Native CoreSVG 341-->
<!DOCTYPE svg
PUBLIC "-//W3C//DTD SVG 1.1//EN"
       "http://www.w3.org/Graphics/SVG/1.1/DTD/svg11.dtd">
<svg version="1.1" xmlns="http://www.w3.org/2000/svg" xmlns:xlink="http://www.w3.org/1999/xlink" viewBox="0 0 17.9158 15.0879">
 <g>
  <rect height="15.0879" opacity="0" width="17.9158" x="0" y="0"/>
  <path d="M2.76856 14.8242L15.2881 14.8242C16.9385 14.8242 17.915 13.8477 17.915 12.0703L17.915 4.18456C17.915 2.40722 16.9336 1.43554 15.1465 1.43554L8.50098 1.43554C7.91992 1.43554 7.55371 1.29394 7.06544 0.92285L6.67481 0.62011C6.07422 0.15625 5.6543 0 4.77052 0L2.63185 0C1.01563 0 0 0.98633 0 2.76855L0 12.0703C0 13.8477 0.981446 14.8242 2.76856 14.8242ZM3.00294 12.7002C2.42676 12.7002 2.11915 12.4268 2.11915 11.8115L2.11915 3.02246C2.11915 2.44629 2.46583 2.11914 3.04688 2.11914L4.19434 2.11914C4.7754 2.11914 5.13184 2.25586 5.625 2.63183L6.01563 2.93457C6.61622 3.39844 7.04102 3.55468 7.92481 3.55468L14.9121 3.55468C15.4883 3.55468 15.7959 3.833 15.7959 4.44824L15.7959 11.8164C15.7959 12.4268 15.4883 12.7002 14.9121 12.7002ZM3.08106 6.1084L14.834 6.1084L14.834 5.36133C14.834 4.90234 14.624 4.71679 14.1895 4.71679L3.7256 4.71679C3.29591 4.71679 3.08106 4.90234 3.08106 5.36133Z" fill="black"/>
 </g>
</svg>
