<?xml version="1.0" encoding="UTF-8"?>
<!--Generator: Apple Native CoreSVG 341-->
<!DOCTYPE svg
PUBLIC "-//W3C//DTD SVG 1.1//EN"
       "http://www.w3.org/Graphics/SVG/1.1/DTD/svg11.dtd">
<svg version="1.1" xmlns="http://www.w3.org/2000/svg" xmlns:xlink="http://www.w3.org/1999/xlink" viewBox="0 0 15.2108 15.2148">
 <g>
  <rect height="15.2148" opacity="0" width="15.2108" x="0" y="0"/>
  <path d="M0.869146 6.22559C1.34766 6.22559 1.73828 5.83496 1.73828 5.35644C1.73828 4.87793 1.34766 4.48731 0.869146 4.48731C0.390626 4.48731 0 4.87793 0 5.35644C0 5.83496 0.390626 6.22559 0.869146 6.22559ZM0.869146 3.98437C1.34766 3.98437 1.73828 3.59375 1.73828 3.11523C1.73828 2.63672 1.34766 2.24121 0.869146 2.24121C0.390626 2.24121 0 2.63672 0 3.11523C0 3.59375 0.390626 3.98437 0.869146 3.98437ZM0.869146 1.73828C1.34766 1.73828 1.73828 1.34766 1.73828 0.86914C1.73828 0.39062 1.34766 0 0.869146 0C0.390626 0 0 0.39062 0 0.86914C0 1.34766 0.390626 1.73828 0.869146 1.73828ZM3.11524 1.73828C3.59376 1.73828 3.98438 1.34766 3.98438 0.86914C3.98438 0.39062 3.59376 0 3.11524 0C2.63672 0 2.2461 0.39062 2.2461 0.86914C2.2461 1.34766 2.63672 1.73828 3.11524 1.73828ZM5.36134 1.73828C5.83985 1.73828 6.23047 1.34766 6.23047 0.86914C6.23047 0.39062 5.83985 0 5.36134 0C4.88281 0 4.49219 0.39062 4.49219 0.86914C4.49219 1.34766 4.88281 1.73828 5.36134 1.73828ZM7.60254 1.73828C8.08106 1.73828 8.47657 1.34766 8.47657 0.86914C8.47657 0.39062 8.08106 0 7.60254 0C7.12403 0 6.73341 0.39062 6.73341 0.86914C6.73341 1.34766 7.12403 1.73828 7.60254 1.73828ZM9.84864 1.73828C10.3271 1.73828 10.7178 1.34766 10.7178 0.86914C10.7178 0.39062 10.3271 0 9.84864 0C9.37012 0 8.97949 0.39062 8.97949 0.86914C8.97949 1.34766 9.37012 1.73828 9.84864 1.73828ZM12.0947 1.73828C12.5732 1.73828 12.9639 1.34766 12.9639 0.86914C12.9639 0.39062 12.5732 0 12.0947 0C11.6162 0 11.2256 0.39062 11.2256 0.86914C11.2256 1.34766 11.6162 1.73828 12.0947 1.73828ZM14.3408 1.73828C14.8193 1.73828 15.21 1.34766 15.21 0.86914C15.21 0.39062 14.8193 0 14.3408 0C13.8623 0 13.4717 0.39062 13.4717 0.86914C13.4717 1.34766 13.8623 1.73828 14.3408 1.73828ZM14.3408 3.98437C14.8193 3.98437 15.21 3.59375 15.21 3.11523C15.21 2.63672 14.8193 2.24121 14.3408 2.24121C13.8623 2.24121 13.4717 2.63672 13.4717 3.11523C13.4717 3.59375 13.8623 3.98437 14.3408 3.98437ZM14.3408 6.22559C14.8193 6.22559 15.21 5.83496 15.21 5.35644C15.21 4.87793 14.8193 4.48731 14.3408 4.48731C13.8623 4.48731 13.4717 4.87793 13.4717 5.35644C13.4717 5.83496 13.8623 6.22559 14.3408 6.22559ZM14.3408 8.47167C14.8193 8.47167 15.21 8.08105 15.21 7.60254C15.21 7.12403 14.8193 6.73339 14.3408 6.73339C13.8623 6.73339 13.4717 7.12403 13.4717 7.60254C13.4717 8.08105 13.8623 8.47167 14.3408 8.47167ZM14.3408 10.7178C14.8193 10.7178 15.21 10.3272 15.21 9.84863C15.21 9.37012 14.8193 8.97949 14.3408 8.97949C13.8623 8.97949 13.4717 9.37012 13.4717 9.84863C13.4717 10.3272 13.8623 10.7178 14.3408 10.7178ZM14.3408 12.9639C14.8193 12.9639 15.21 12.5732 15.21 12.0947C15.21 11.6162 14.8193 11.2207 14.3408 11.2207C13.8623 11.2207 13.4717 11.6162 13.4717 12.0947C13.4717 12.5732 13.8623 12.9639 14.3408 12.9639ZM14.3408 15.21C14.8193 15.21 15.21 14.8145 15.21 14.3359C15.21 13.8574 14.8193 13.4668 14.3408 13.4668C13.8623 13.4668 13.4717 13.8574 13.4717 14.3359C13.4717 14.8145 13.8623 15.21 14.3408 15.21ZM10.9229 15.21C11.4014 15.21 11.792 14.8145 11.792 14.3359C11.792 13.8574 11.4014 13.4668 10.9229 13.4668C10.4443 13.4668 10.0537 13.8574 10.0537 14.3359C10.0537 14.8145 10.4443 15.21 10.9229 15.21ZM11.0205 15.21C11.499 15.21 11.8897 14.8145 11.8897 14.3359C11.8897 13.8574 11.499 13.4668 11.0205 13.4668C10.542 13.4668 10.1514 13.8574 10.1514 14.3359C10.1514 14.8145 10.542 15.21 11.0205 15.21Z" fill="black"/>
  <path d="M8.31055 4.85351L10.2783 6.82129C10.5859 7.12402 11.0547 6.97265 11.1426 6.53808L11.665 4.14062C11.7432 3.74512 11.4062 3.41308 11.0107 3.50586L8.61329 4.00391C8.16895 4.08692 8.00782 4.54102 8.31055 4.85351Z" fill="black"/>
  <path d="M0.771486 15.1953L7.53907 15.1953C8.00294 15.1953 8.31055 14.8828 8.31055 14.4189L8.31055 9.2041L7.7295 9.76562C7.42188 10.0684 7.03126 10.2246 6.64063 10.2393L6.64063 13.3008C6.64063 13.4473 6.57227 13.5156 6.42091 13.5156L1.88965 13.5156C1.73829 13.5156 1.66993 13.4473 1.66993 13.3008L1.66993 8.7793C1.66993 8.63282 1.73829 8.56445 1.88965 8.56445L4.8584 8.56445C4.83399 8.125 5 7.68066 5.33692 7.34863L5.80567 6.88965L0.771486 6.88965C0.307616 6.88965 0 7.19727 0 7.66113L0 14.4189C0 14.8828 0.307616 15.1953 0.771486 15.1953ZM6.97755 8.99414L10.6836 5.29296C10.9131 5.05859 10.9131 4.67285 10.6738 4.43847C10.4395 4.2041 10.0635 4.21875 9.83887 4.44825L6.12794 8.1543C5.90333 8.38379 5.8838 8.75488 6.11817 8.98926C6.35743 9.22364 6.74317 9.22851 6.97755 8.99414Z" fill="black"/>
 </g>
</svg>
