<svg width="20" height="10" viewBox="0 0 20 10" fill="none" xmlns="http://www.w3.org/2000/svg">
<rect width="20" height="10" rx="5" fill="#92D5FF"/>
<path d="M4.19336 7C5.29793 7 6.19336 6.10457 6.19336 5C6.19336 3.89543 5.29793 3 4.19336 3C3.08879 3 2.19336 3.89543 2.19336 5C2.19336 6.10457 3.08879 7 4.19336 7Z" fill="#006DD3"/>
<path d="M10 7C11.1046 7 12 6.10457 12 5C12 3.89543 11.1046 3 10 3C8.89543 3 8 3.89543 8 5C8 6.10457 8.89543 7 10 7Z" fill="#006DD3"/>
<path d="M15.8066 7C16.9112 7 17.8066 6.10457 17.8066 5C17.8066 3.89543 16.9112 3 15.8066 3C14.7021 3 13.8066 3.89543 13.8066 5C13.8066 6.10457 14.7021 7 15.8066 7Z" fill="#006DD3"/>
</svg>
