<svg width="1720" height="771" viewBox="0 0 1720 771" fill="none" xmlns="http://www.w3.org/2000/svg">
<g filter="url(#filter0_i_173_881)">
<path d="M360 13C360 8.58172 363.582 5 368 5H1352C1356.42 5 1360 8.58172 1360 13V25H360V13Z" fill="#D0D0D0"/>
</g>
<path d="M1352 2.5C1357.8 2.50001 1362.5 7.20101 1362.5 13V27.5H357.5V13C357.5 7.20101 362.201 2.5 368 2.5H1352Z" stroke="#616161" stroke-width="5"/>
<g filter="url(#filter1_i_173_881)">
<path d="M197.755 721H447.755V760C447.755 766.075 442.831 771 436.755 771H208.755C202.68 771 197.755 766.075 197.755 760V721Z" fill="#B4B4B4"/>
</g>
<path d="M445.255 723.5V760C445.255 764.694 441.45 768.5 436.755 768.5H208.755C204.061 768.5 200.255 764.694 200.255 760V723.5H445.255Z" stroke="#616161" stroke-width="5"/>
<g filter="url(#filter2_i_173_881)">
<path d="M1272.24 721H1522.24V760C1522.24 766.075 1517.32 771 1511.24 771H1283.24C1277.17 771 1272.24 766.075 1272.24 760V721Z" fill="#B4B4B4"/>
</g>
<path d="M1519.74 723.5V760C1519.74 764.694 1515.94 768.5 1511.24 768.5H1283.24C1278.55 768.5 1274.74 764.694 1274.74 760V723.5H1519.74Z" stroke="#616161" stroke-width="5"/>
<g filter="url(#filter3_ii_173_881)">
<rect y="25" width="1720" height="700" rx="100" fill="#CECECE"/>
</g>
<rect x="2.5" y="27.5" width="1715" height="695" rx="97.5" stroke="#616161" stroke-width="5"/>
<rect x="50" y="75" width="1620" height="600" rx="80" fill="#929292"/>
<rect x="100" y="125" width="1520" height="500" rx="25" fill="#303030"/>
<rect x="125" y="150" width="1470" height="450" rx="15" fill="black"/>
<rect x="600" y="275" width="50" height="50" rx="25" fill="white"/>
<rect x="1070" y="275" width="50" height="50" rx="25" fill="white"/>
<rect x="600" y="425" width="50" height="50" rx="25" fill="white"/>
<rect x="1070" y="425" width="50" height="50" rx="25" fill="white"/>
<defs>
<filter id="filter0_i_173_881" x="355" y="-11" width="1010" height="41" filterUnits="userSpaceOnUse" color-interpolation-filters="sRGB">
<feFlood flood-opacity="0" result="BackgroundImageFix"/>
<feBlend mode="normal" in="SourceGraphic" in2="BackgroundImageFix" result="shape"/>
<feColorMatrix in="SourceAlpha" type="matrix" values="0 0 0 0 0 0 0 0 0 0 0 0 0 0 0 0 0 0 127 0" result="hardAlpha"/>
<feMorphology radius="17" operator="dilate" in="SourceAlpha" result="effect1_innerShadow_173_881"/>
<feOffset dy="-11"/>
<feGaussianBlur stdDeviation="14.4"/>
<feComposite in2="hardAlpha" operator="arithmetic" k2="-1" k3="1"/>
<feColorMatrix type="matrix" values="0 0 0 0 0 0 0 0 0 0 0 0 0 0 0 0 0 0 1 0"/>
<feBlend mode="normal" in2="shape" result="effect1_innerShadow_173_881"/>
</filter>
<filter id="filter1_i_173_881" x="197.755" y="721" width="250" height="54" filterUnits="userSpaceOnUse" color-interpolation-filters="sRGB">
<feFlood flood-opacity="0" result="BackgroundImageFix"/>
<feBlend mode="normal" in="SourceGraphic" in2="BackgroundImageFix" result="shape"/>
<feColorMatrix in="SourceAlpha" type="matrix" values="0 0 0 0 0 0 0 0 0 0 0 0 0 0 0 0 0 0 127 0" result="hardAlpha"/>
<feMorphology radius="4" operator="erode" in="SourceAlpha" result="effect1_innerShadow_173_881"/>
<feOffset dy="4"/>
<feGaussianBlur stdDeviation="10.8"/>
<feComposite in2="hardAlpha" operator="arithmetic" k2="-1" k3="1"/>
<feColorMatrix type="matrix" values="0 0 0 0 0 0 0 0 0 0 0 0 0 0 0 0 0 0 0.62 0"/>
<feBlend mode="normal" in2="shape" result="effect1_innerShadow_173_881"/>
</filter>
<filter id="filter2_i_173_881" x="1272.24" y="721" width="250" height="54" filterUnits="userSpaceOnUse" color-interpolation-filters="sRGB">
<feFlood flood-opacity="0" result="BackgroundImageFix"/>
<feBlend mode="normal" in="SourceGraphic" in2="BackgroundImageFix" result="shape"/>
<feColorMatrix in="SourceAlpha" type="matrix" values="0 0 0 0 0 0 0 0 0 0 0 0 0 0 0 0 0 0 127 0" result="hardAlpha"/>
<feMorphology radius="4" operator="erode" in="SourceAlpha" result="effect1_innerShadow_173_881"/>
<feOffset dy="4"/>
<feGaussianBlur stdDeviation="10.8"/>
<feComposite in2="hardAlpha" operator="arithmetic" k2="-1" k3="1"/>
<feColorMatrix type="matrix" values="0 0 0 0 0 0 0 0 0 0 0 0 0 0 0 0 0 0 0.62 0"/>
<feBlend mode="normal" in2="shape" result="effect1_innerShadow_173_881"/>
</filter>
<filter id="filter3_ii_173_881" x="0" y="21" width="1720" height="727" filterUnits="userSpaceOnUse" color-interpolation-filters="sRGB">
<feFlood flood-opacity="0" result="BackgroundImageFix"/>
<feBlend mode="normal" in="SourceGraphic" in2="BackgroundImageFix" result="shape"/>
<feColorMatrix in="SourceAlpha" type="matrix" values="0 0 0 0 0 0 0 0 0 0 0 0 0 0 0 0 0 0 127 0" result="hardAlpha"/>
<feOffset dy="-4"/>
<feGaussianBlur stdDeviation="11.95"/>
<feComposite in2="hardAlpha" operator="arithmetic" k2="-1" k3="1"/>
<feColorMatrix type="matrix" values="0 0 0 0 0 0 0 0 0 0 0 0 0 0 0 0 0 0 0.87 0"/>
<feBlend mode="normal" in2="shape" result="effect1_innerShadow_173_881"/>
<feColorMatrix in="SourceAlpha" type="matrix" values="0 0 0 0 0 0 0 0 0 0 0 0 0 0 0 0 0 0 127 0" result="hardAlpha"/>
<feOffset dy="23"/>
<feGaussianBlur stdDeviation="55.7"/>
<feComposite in2="hardAlpha" operator="arithmetic" k2="-1" k3="1"/>
<feColorMatrix type="matrix" values="0 0 0 0 0.831684 0 0 0 0 0.831684 0 0 0 0 0.831684 0 0 0 1 0"/>
<feBlend mode="normal" in2="effect1_innerShadow_173_881" result="effect2_innerShadow_173_881"/>
</filter>
</defs>
</svg>
